<svg width="774" height="203" viewBox="0 0 774 203" fill="none" xmlns="http://www.w3.org/2000/svg">
<path d="M75.4353 138.148C184.873 67.9476 245.906 52.132 229.684 35.8486C213.462 19.5652 191.942 3.24226 169.118 0.647781C146.295 -1.94669 123.268 3.30012 103.813 15.528C84.3582 27.7559 69.6301 46.2392 62.0432 67.9476C44.6579 69.3724 28.497 77.4753 16.9433 90.5601C5.38955 103.645 -0.66126 120.697 0.0574137 138.148C0.776088 155.598 8.20853 172.094 20.799 184.182C33.3894 196.27 50.1617 203.013 67.6051 203H259.008C273.939 202.919 288.225 196.903 298.726 186.276C309.226 175.648 315.08 161.279 314.999 146.33C314.919 131.381 299.295 110.845 288.681 100.331C278.066 89.8175 238.691 53.2093 75.4353 138.148Z" fill="url(#paint0_linear_3570_32)"/>
<path d="M472.358 0C497.183 1.42882e-05 516.441 6.20169 530.132 18.6041C543.822 30.8242 552.766 47.969 556.965 70.038L519.727 71.953C517.354 59.1858 512.242 49.1543 504.393 41.8587C496.544 34.5632 485.866 30.9155 472.358 30.9155C461.405 30.9155 451.913 33.8338 443.881 39.6702C435.85 45.5067 429.643 53.7144 425.262 64.2929C420.882 74.8714 418.691 87.3652 418.691 101.774C418.691 116.365 420.882 128.95 425.262 139.528C429.826 149.924 436.124 157.949 444.155 163.603C452.187 169.257 461.497 172.085 472.084 172.085C486.505 172.085 497.64 168.164 505.489 160.321C513.521 152.296 518.631 141.352 520.822 127.49L558.06 129.405C555.504 144.544 550.576 157.676 543.274 168.801C535.973 179.745 526.298 188.226 514.25 194.245C502.385 200.082 488.33 203 472.084 203C454.378 203 438.77 198.987 425.262 190.962C411.754 182.755 401.167 171.173 393.5 156.217C385.833 141.078 382 122.931 382 101.774C382 80.9815 385.742 63.0156 393.226 47.8773C400.71 32.5566 411.207 20.7931 424.715 12.5856C438.223 4.19568 454.104 0 472.358 0Z" fill="url(#paint1_linear_3570_32)"/>
<path d="M623.993 167.708H716.267V198.622H588.397V4.37777H623.993V167.708Z" fill="url(#paint2_linear_3570_32)"/>
<path d="M774 198.622H738.404V4.37777H774V198.622Z" fill="url(#paint3_linear_3570_32)"/>
<defs>
<linearGradient id="paint0_linear_3570_32" x1="157.5" y1="0" x2="157.5" y2="203" gradientUnits="userSpaceOnUse">
<stop stop-color="#EA5600"/>
<stop offset="1" stop-color="#843000"/>
</linearGradient>
<linearGradient id="paint1_linear_3570_32" x1="578" y1="0" x2="578" y2="203" gradientUnits="userSpaceOnUse">
<stop stop-color="#EA5600"/>
<stop offset="1" stop-color="#843000"/>
</linearGradient>
<linearGradient id="paint2_linear_3570_32" x1="578" y1="0" x2="578" y2="203" gradientUnits="userSpaceOnUse">
<stop stop-color="#EA5600"/>
<stop offset="1" stop-color="#843000"/>
</linearGradient>
<linearGradient id="paint3_linear_3570_32" x1="578" y1="0" x2="578" y2="203" gradientUnits="userSpaceOnUse">
<stop stop-color="#EA5600"/>
<stop offset="1" stop-color="#843000"/>
</linearGradient>
</defs>
</svg>
